<?xml version="1.0" encoding="utf-8"?>
<!-- Generator: Adobe Illustrator 16.0.0, SVG Export Plug-In . SVG Version: 6.00 Build 0)  -->
<!DOCTYPE svg PUBLIC "-//W3C//DTD SVG 1.1//EN" "http://www.w3.org/Graphics/SVG/1.1/DTD/svg11.dtd">
<svg version="1.1" xmlns="http://www.w3.org/2000/svg" xmlns:xlink="http://www.w3.org/1999/xlink" x="0px" y="0px"
	 width="395.98px" height="151.369px" viewBox="0 0 395.98 151.369" enable-background="new 0 0 395.98 151.369"
	 xml:space="preserve">
<g id="Layer_1">
	<g>
		<path fill="#053F59" d="M66.119,21.922c0.248-0.051,0.471-0.076,0.67-0.076c0.197,0,0.396,0.025,0.595,0.076h40.096
			c1.982,0,3.645,0.678,4.984,2.037c1.388,1.408,2.082,3.092,2.082,5.053c0,2.012-0.694,3.697-2.082,5.055
			c-1.34,1.408-3.002,2.111-4.984,2.111H73.855v86.148c0,2.012-0.695,3.721-2.083,5.129c-1.389,1.357-3.05,2.037-4.983,2.037
			c-1.984,0-3.671-0.68-5.059-2.037c-1.389-1.408-2.083-3.117-2.083-5.129V36.178H26.023c-1.934,0-3.596-0.703-4.983-2.111
			c-1.39-1.357-2.083-3.043-2.083-5.055c0-1.961,0.693-3.645,2.083-5.053c1.388-1.359,3.05-2.037,4.983-2.037H66.119z"/>
		<path fill="#053F59" d="M118.62,43.289c0-1.68,0.595-3.125,1.786-4.332c1.189-1.207,2.614-1.811,4.272-1.811
			c1.699,0,3.124,0.604,4.272,1.811c1.189,1.207,1.785,2.652,1.785,4.332v44.686c0,8.02,2.827,14.896,8.481,20.629
			c5.654,5.734,12.436,8.602,20.343,8.602c7.95,0,14.731-2.867,20.343-8.602c5.654-5.732,8.481-12.609,8.481-20.629V43.289
			c0-1.68,0.596-3.125,1.786-4.332c1.189-1.207,2.614-1.811,4.272-1.811c1.7,0,3.146,0.604,4.336,1.811s1.786,2.652,1.786,4.332
			v44.686c0,11.426-4.018,21.211-12.053,29.359c-8.035,8.105-17.687,12.158-28.952,12.158c-11.267,0-20.896-4.053-28.888-12.158
			c-8.035-8.148-12.053-17.934-12.053-29.359V43.289z"/>
		<path fill="#053F59" d="M205.925,41.092c0.638-1.596,1.722-2.717,3.252-3.363s3.061-0.646,4.592,0
			c1.572,0.604,2.678,1.703,3.315,3.299l27.804,66.607l27.805-66.607c0.638-1.596,1.742-2.695,3.315-3.299
			c1.531-0.646,3.062-0.646,4.592,0s2.614,1.768,3.252,3.363c0.638,1.551,0.638,3.104,0,4.656l-33.415,79.992
			c-0.638,1.553-1.701,2.652-3.188,3.299c-1.531,0.646-3.083,0.646-4.655,0c-1.531-0.646-2.615-1.746-3.253-3.299l-33.415-79.992
			C205.287,44.195,205.287,42.643,205.925,41.092z"/>
		<path fill="#053F59" d="M363.695,50.727c8.885,9.012,13.328,19.896,13.328,32.658c0,12.717-4.443,23.582-13.328,32.592
			c-8.887,9.01-19.6,13.516-32.141,13.516c-12.585,0-23.319-4.506-32.204-13.516c-8.886-9.01-13.328-19.875-13.328-32.592
			c0-12.762,4.442-23.646,13.328-32.658c8.885-9.01,19.619-13.516,32.204-13.516C344.096,37.211,354.809,41.717,363.695,50.727z
			 M331.555,49.498c-9.226,0-17.091,3.32-23.595,9.959c-6.548,6.596-9.821,14.572-9.821,23.928s3.273,17.33,9.821,23.926
			c6.504,6.596,14.369,9.895,23.595,9.895c9.183,0,17.048-3.299,23.595-9.895c6.505-6.596,9.757-14.57,9.757-23.926
			s-3.252-17.332-9.757-23.928C348.603,52.818,340.737,49.498,331.555,49.498z"/>
	</g>
</g>
<g id="Layer_2" display="none">
</g>
</svg>
