<?xml version="1.0" encoding="utf-8"?>
<!-- Generator: Adobe Illustrator 16.0.0, SVG Export Plug-In . SVG Version: 6.00 Build 0)  -->
<!DOCTYPE svg PUBLIC "-//W3C//DTD SVG 1.1//EN" "http://www.w3.org/Graphics/SVG/1.1/DTD/svg11.dtd">
<svg version="1.1" xmlns="http://www.w3.org/2000/svg" xmlns:xlink="http://www.w3.org/1999/xlink" x="0px" y="0px"
	 width="511.647px" height="356.393px" viewBox="0 0 511.647 356.393" enable-background="new 0 0 511.647 356.393"
	 xml:space="preserve">
<g id="Layer_1">
	<g>
		<path fill="#107A7A" d="M326.975,128.307c-0.424,0.095-0.754,0.476-1.017,0.995c-0.001,0.034-0.001,0.068-0.002,0.104
			c-0.824,13.203-5.43,26.913-13.628,37.406c-2.292,2.934-5.107,5.697-7.996,8.035c-1.547,1.254-3.182,2.396-4.871,3.451
			c-6.184,3.855-13.277,6.828-20.437,8.231c-2.003,0.392-4.013,0.748-6.032,1.047c-3.293,0.487-6.618,0.881-9.951,0.961
			c-3.3,0.079-6.636-0.058-9.896-0.588c-1.852-0.302-3.712-0.704-5.516-1.213c-3.071-0.865-6.141-1.815-9.139-2.903
			c-0.377-0.137-0.752-0.276-1.128-0.423c-0.214-0.083-0.774-0.438-0.998-0.404c0.009-0.001,0.03,0.002,0.04-0.001
			c-20.414-7.885-35.096-27.536-35.496-50.731c-0.527-30.541,23.889-55.82,54.432-56.348c0.088-0.001,0.174,0.006,0.264,0.004
			c-4.004-4.771-7.177-10.027-8.68-16.533c-36.107,4.679-63.797,35.93-63.154,73.173c0.69,39.992,33.787,71.966,73.779,71.275
			c39.936-0.69,71.872-33.695,71.274-73.609C328.578,128.847,328.016,128.068,326.975,128.307z"/>
		<g>
			<g>
				<path fill="#90D3D0" d="M200.844,132.385c-0.225-11.525,3.111-22.303,8.986-31.293l-14.633-8.931
					c-7.521,11.688-11.78,25.646-11.492,40.555c0.287,14.805,5.021,28.495,12.888,39.833l14.134-9.683
					C204.693,154.193,201.062,143.716,200.844,132.385z"/>
			</g>
			<path fill="#D9661C" d="M246.137,116.987"/>
			<path fill="#FC9F3E" d="M324.717,119.968c-0.356-7.852-2.039-15.769-4.955-23.181c-2.464-6.274-5.816-12.187-9.996-17.394
				c-2.794-3.475-6.008-6.481-9.477-9.184c-4.469-3.482-9.357-6.459-14.287-9.278c-5.846-3.344-11.471-6.428-16.338-10.712
				c-1.863-1.638-3.617-3.453-5.232-5.524c-4.01-5.15-7.593-11.016-9.054-17.449c-0.411-1.811-0.468-3.696-0.974-5.488
				c-0.51-1.803-2.258,5.204-2.856,6.991c-0.817,2.427-1.462,4.907-1.961,7.417c-1.286,6.457-2.517,14.634-0.806,21.122
				c0.576,2.188,1.825,4.504,2.917,6.479c0.981,1.773,2.175,3.4,3.538,4.901c2.839,3.124,5.984,6.067,9.171,8.84
				c3.126,2.719,6.522,5.069,9.921,7.432c2.665,1.85,5.326,3.706,8.088,5.415c0.852,0.525,1.719,1.034,2.56,1.58
				c0.241,0.156,0.938,0.479,1.051,0.774c0.015,0.037,0.087,0.085,0.115,0.116c-0.083,0.018-0.165-0.007-0.251-0.033
				c-6.425-1.952-13.537-4.911-25.677-12.986c2.731,2.941,5.741,5.738,8.812,8.592c2.201,2.044,4.432,4.114,6.615,6.283
				c3.978,3.955,7.796,8.119,11.169,12.602c3.374,4.48,6.3,9.273,8.5,14.488c1.45,3.434,2.473,7.127,3.008,10.877
				c0.347,2.435,0.485,4.894,0.405,7.32c-0.146,4.345-0.703,8.689-1.799,12.878c-1.138,4.369-2.857,8.568-5.296,12.425
				c-3.103,4.906-7.103,9.204-11.778,12.649c-6.623,4.883-14.621,8.024-23.344,8.814c-0.165,0.108-0.244,0.231-0.055,0.336
				c1.575,0.058,4.259,0.262,8.488,0.249c16.57-0.049,35.525-8.916,46.089-22.437c2.721-3.482,5.044-7.319,6.97-11.377
				c3.87-8.162,6.105-17.206,6.658-26.028C324.814,124.976,324.831,122.469,324.717,119.968z"/>
			<path fill="#DB661C" d="M287.908,138.102c-3.547-22.768-28.498-33.976-32.478-56.938c-1.761,1.938-5.503,6.646-6.108,7.578
				c-4.754,7.338-6.494,16.814-4.018,25.267c2.632,8.982,11.375,14.39,13.825,23.402c3.163,11.626-16.43,18.987-23.833,11.317
				c-6.828-7.075-3.986-21.641-0.227-29.492c0.617-1.286,1.143-2.629,2.099-3.711c0.01-0.014,0.015-0.021,0.022-0.034
				c0.131-0.214,0.096-0.289-0.009-0.3c-8.533,4.347-15.528,15.083-15.757,27.261c-0.347,18.513,14.381,33.805,32.895,34.148
				c15.435,0.292,31.623-11.47,33.637-27.304C288.472,145.27,288.449,141.583,287.908,138.102z"/>
		</g>
	</g>
	<g>
		<path fill="#053F59" d="M123.494,222.396c0.248-0.05,0.471-0.075,0.67-0.075c0.197,0,0.396,0.025,0.595,0.075h40.096
			c1.982,0,3.645,0.679,4.984,2.037c1.388,1.408,2.082,3.093,2.082,5.054c0,2.012-0.694,3.696-2.082,5.055
			c-1.34,1.408-3.002,2.111-4.984,2.111H131.23v86.147c0,2.012-0.695,3.722-2.083,5.129c-1.389,1.358-3.05,2.037-4.983,2.037
			c-1.984,0-3.671-0.679-5.059-2.037c-1.389-1.407-2.083-3.117-2.083-5.129v-86.147H83.398c-1.934,0-3.596-0.703-4.983-2.111
			c-1.39-1.358-2.083-3.043-2.083-5.055c0-1.961,0.693-3.646,2.083-5.054c1.388-1.358,3.05-2.037,4.983-2.037H123.494z"/>
		<path fill="#053F59" d="M175.995,243.765c0-1.681,0.595-3.125,1.786-4.332c1.189-1.207,2.614-1.811,4.272-1.811
			c1.699,0,3.124,0.604,4.272,1.811c1.189,1.207,1.785,2.651,1.785,4.332v44.686c0,8.019,2.827,14.896,8.481,20.629
			c5.654,5.734,12.436,8.601,20.343,8.601c7.95,0,14.731-2.866,20.343-8.601c5.654-5.733,8.481-12.61,8.481-20.629v-44.686
			c0-1.681,0.596-3.125,1.786-4.332c1.189-1.207,2.614-1.811,4.272-1.811c1.7,0,3.146,0.604,4.336,1.811s1.786,2.651,1.786,4.332
			v44.686c0,11.425-4.018,21.211-12.053,29.359c-8.035,8.105-17.687,12.157-28.952,12.157c-11.267,0-20.896-4.052-28.888-12.157
			c-8.035-8.148-12.053-17.935-12.053-29.359V243.765z"/>
		<path fill="#053F59" d="M263.3,241.566c0.638-1.595,1.722-2.716,3.252-3.362c1.53-0.647,3.061-0.647,4.592,0
			c1.572,0.604,2.678,1.703,3.315,3.298l27.804,66.607l27.805-66.607c0.638-1.595,1.742-2.694,3.315-3.298
			c1.531-0.647,3.062-0.647,4.592,0c1.53,0.646,2.614,1.768,3.252,3.362c0.638,1.552,0.638,3.104,0,4.656l-33.415,79.993
			c-0.638,1.553-1.701,2.651-3.188,3.298c-1.531,0.647-3.083,0.647-4.655,0c-1.531-0.646-2.615-1.745-3.253-3.298L263.3,246.223
			C262.662,244.671,262.662,243.118,263.3,241.566z"/>
		<path fill="#053F59" d="M421.07,251.202c8.885,9.011,13.328,19.896,13.328,32.657c0,12.718-4.443,23.582-13.328,32.592
			c-8.887,9.011-19.6,13.516-32.141,13.516c-12.585,0-23.319-4.505-32.204-13.516c-8.886-9.01-13.328-19.874-13.328-32.592
			c0-12.761,4.442-23.646,13.328-32.657c8.885-9.011,19.619-13.516,32.204-13.516C401.471,237.687,412.184,242.191,421.07,251.202z
			 M388.93,249.974c-9.226,0-17.091,3.319-23.595,9.958c-6.548,6.597-9.821,14.572-9.821,23.928s3.273,17.33,9.821,23.927
			c6.504,6.596,14.369,9.894,23.595,9.894c9.183,0,17.048-3.298,23.595-9.894c6.505-6.597,9.757-14.571,9.757-23.927
			s-3.252-17.331-9.757-23.928C405.978,253.293,398.112,249.974,388.93,249.974z"/>
	</g>
</g>
<g id="Layer_2" display="none">
</g>
</svg>
