<?xml version="1.0" encoding="utf-8"?>
<!-- Generator: Adobe Illustrator 16.0.0, SVG Export Plug-In . SVG Version: 6.00 Build 0)  -->
<!DOCTYPE svg PUBLIC "-//W3C//DTD SVG 1.1//EN" "http://www.w3.org/Graphics/SVG/1.1/DTD/svg11.dtd">
<svg version="1.1" xmlns="http://www.w3.org/2000/svg" xmlns:xlink="http://www.w3.org/1999/xlink" x="0px" y="0px"
	 width="254.652px" height="249.262px" viewBox="0 0 254.652 249.262" enable-background="new 0 0 254.652 249.262"
	 xml:space="preserve">
<g id="Layer_1">
	<g>
		<path fill="#107A7A" d="M214.235,145.361c-0.521,0.108-0.936,0.568-1.27,1.201c-0.002,0.042-0.002,0.084-0.004,0.128
			c-1.292,16.198-7.239,32.938-17.53,45.651c-2.878,3.555-6.396,6.889-9.991,9.699c-1.927,1.506-3.959,2.875-6.056,4.135
			c-7.676,4.604-16.451,8.105-25.274,9.676c-2.469,0.438-4.944,0.834-7.43,1.158c-4.056,0.529-8.147,0.941-12.242,0.969
			c-4.055,0.027-8.148-0.211-12.142-0.932c-2.268-0.41-4.544-0.943-6.749-1.605c-3.753-1.129-7.502-2.361-11.162-3.76
			c-0.459-0.176-0.917-0.357-1.376-0.543c-0.261-0.107-0.942-0.557-1.217-0.52c0.011,0,0.037,0.004,0.049,0
			c-24.905-10.117-42.518-34.562-42.518-63.058c0-37.521,30.522-68.049,68.045-68.049c0.107,0,0.213,0.011,0.323,0.011
			c-4.815-5.943-8.602-12.468-10.31-20.489c-44.445,4.979-79.114,42.773-79.114,88.527c0,49.13,39.969,89.101,89.101,89.101
			c49.061,0,88.983-39.859,89.097-88.891C216.194,146.06,215.521,145.092,214.235,145.361z"/>
		<g>
			<g>
				<path fill="#90D3D0" d="M59.241,147.695c-0.031-14.159,4.295-27.325,11.7-38.242L53.159,98.175
					c-9.484,14.194-15.011,31.248-14.973,49.564c0.039,18.188,5.562,35.101,14.982,49.194l17.564-11.594
					C63.507,174.561,59.271,161.616,59.241,147.695z"/>
			</g>
			<path fill="#D9661C" d="M115.195,129.746"/>
			<path fill="#FC9F3E" d="M211.64,135.073c-0.271-9.65-2.17-19.41-5.595-28.574c-2.893-7.759-6.884-15.091-11.908-21.574
				c-3.356-4.327-7.24-8.087-11.443-11.479c-5.415-4.372-11.354-8.132-17.351-11.699c-7.106-4.23-13.949-8.137-19.838-13.502
				c-2.252-2.051-4.368-4.317-6.307-6.896c-4.817-6.41-9.093-13.689-10.751-21.621c-0.466-2.232-0.496-4.551-1.078-6.761
				c-0.588-2.226-2.885,6.343-3.657,8.524c-1.055,2.963-1.9,5.996-2.565,9.067c-1.717,7.904-3.401,17.921-1.438,25.925
				c0.661,2.699,2.146,5.569,3.445,8.02c1.167,2.199,2.6,4.222,4.241,6.095c3.42,3.897,7.222,7.578,11.075,11.051
				c3.781,3.405,7.903,6.365,12.027,9.338c3.233,2.328,6.463,4.665,9.818,6.821c1.035,0.665,2.088,1.308,3.11,1.996
				c0.292,0.197,1.142,0.607,1.273,0.973c0.017,0.046,0.104,0.107,0.14,0.146c-0.104,0.021-0.203-0.012-0.309-0.047
				c-7.849-2.533-16.521-6.318-31.259-16.494c3.291,3.671,6.93,7.17,10.64,10.74c2.659,2.558,5.354,5.146,7.991,7.856
				c4.801,4.942,9.402,10.138,13.449,15.714c4.05,5.573,7.541,11.523,10.133,17.975c1.707,4.247,2.885,8.805,3.463,13.421
				c0.374,2.998,0.493,6.021,0.344,8.999c-0.272,5.333-1.049,10.657-2.483,15.778c-1.49,5.342-3.691,10.463-6.768,15.146
				c-3.916,5.959-8.918,11.154-14.733,15.287c-8.238,5.855-18.127,9.545-28.857,10.33c-0.205,0.129-0.306,0.277-0.073,0.41
				c1.933,0.104,5.225,0.412,10.42,0.486c20.352,0.291,43.817-10.197,57.079-26.578c3.415-4.219,6.35-8.883,8.801-13.824
				c4.927-9.941,7.863-21.003,8.729-31.825C211.652,141.226,211.728,138.147,211.64,135.073z"/>
			<path fill="#DB661C" d="M166.049,156.562c-3.874-28.037-34.279-42.33-38.68-70.615c-2.203,2.341-6.899,8.045-7.662,9.178
				c-5.994,8.91-8.332,20.512-5.472,30.945c3.042,11.088,13.667,17.914,16.484,29.035c3.638,14.344-20.582,22.969-29.511,13.393
				c-8.236-8.833-4.437-26.662,0.348-36.225c0.784-1.566,1.458-3.204,2.655-4.513c0.013-0.017,0.02-0.026,0.029-0.042
				c0.165-0.261,0.122-0.353-0.005-0.368c-10.573,5.156-19.391,18.194-19.93,33.146c-0.819,22.729,16.945,41.822,39.674,42.637
				c18.95,0.686,39.081-13.416,41.891-32.818C166.588,165.377,166.639,160.85,166.049,156.562z"/>
		</g>
	</g>
</g>
<g id="Layer_2" display="none">
</g>
</svg>
