<?xml version="1.0" encoding="utf-8"?>
<!-- Generator: Adobe Illustrator 16.0.0, SVG Export Plug-In . SVG Version: 6.00 Build 0)  -->
<!DOCTYPE svg PUBLIC "-//W3C//DTD SVG 1.1//EN" "http://www.w3.org/Graphics/SVG/1.1/DTD/svg11.dtd">
<svg version="1.1" xmlns="http://www.w3.org/2000/svg" xmlns:xlink="http://www.w3.org/1999/xlink" x="0px" y="0px"
	 width="513.331px" height="174.666px" viewBox="0 0 513.331 174.666" enable-background="new 0 0 513.331 174.666"
	 xml:space="preserve">
<g id="Layer_1">
	<g>
		<path fill="#053F59" d="M182.92,43.723c0.248-0.05,0.471-0.075,0.67-0.075c0.197,0,0.396,0.025,0.595,0.075h40.096
			c1.982,0,3.645,0.679,4.984,2.037c1.388,1.408,2.082,3.093,2.082,5.054c0,2.012-0.694,3.696-2.082,5.055
			c-1.34,1.408-3.002,2.111-4.984,2.111h-33.624v86.147c0,2.012-0.695,3.722-2.083,5.129c-1.389,1.358-3.05,2.037-4.983,2.037
			c-1.984,0-3.671-0.679-5.059-2.037c-1.389-1.407-2.083-3.117-2.083-5.129V57.979h-33.624c-1.934,0-3.596-0.703-4.983-2.111
			c-1.39-1.358-2.083-3.043-2.083-5.055c0-1.961,0.693-3.646,2.083-5.054c1.388-1.358,3.05-2.037,4.983-2.037H182.92z"/>
		<path fill="#053F59" d="M235.421,65.091c0-1.681,0.595-3.125,1.786-4.332c1.189-1.207,2.614-1.811,4.272-1.811
			c1.699,0,3.124,0.604,4.272,1.811c1.189,1.207,1.785,2.651,1.785,4.332v44.686c0,8.019,2.827,14.896,8.481,20.629
			c5.654,5.734,12.436,8.601,20.343,8.601c7.95,0,14.731-2.866,20.343-8.601c5.654-5.733,8.481-12.61,8.481-20.629V65.091
			c0-1.681,0.596-3.125,1.786-4.332c1.189-1.207,2.614-1.811,4.272-1.811c1.7,0,3.146,0.604,4.336,1.811s1.786,2.651,1.786,4.332
			v44.686c0,11.425-4.018,21.211-12.053,29.359c-8.035,8.105-17.687,12.157-28.952,12.157c-11.267,0-20.896-4.052-28.888-12.157
			c-8.035-8.148-12.053-17.935-12.053-29.359V65.091z"/>
		<path fill="#053F59" d="M322.726,62.893c0.638-1.595,1.722-2.716,3.252-3.362c1.53-0.647,3.061-0.647,4.592,0
			c1.572,0.604,2.678,1.703,3.315,3.298l27.804,66.607l27.805-66.607c0.638-1.595,1.742-2.694,3.315-3.298
			c1.531-0.647,3.062-0.647,4.592,0c1.53,0.646,2.614,1.768,3.252,3.362c0.638,1.552,0.638,3.104,0,4.656l-33.415,79.993
			c-0.638,1.553-1.701,2.651-3.188,3.298c-1.531,0.647-3.083,0.647-4.655,0c-1.531-0.646-2.615-1.745-3.253-3.298l-33.415-79.993
			C322.088,65.997,322.088,64.444,322.726,62.893z"/>
		<path fill="#053F59" d="M480.496,72.528c8.885,9.011,13.328,19.896,13.328,32.657c0,12.718-4.443,23.582-13.328,32.592
			c-8.887,9.011-19.6,13.516-32.141,13.516c-12.585,0-23.319-4.505-32.204-13.516c-8.886-9.01-13.328-19.874-13.328-32.592
			c0-12.761,4.442-23.646,13.328-32.657c8.885-9.011,19.619-13.516,32.204-13.516C460.896,59.013,471.609,63.518,480.496,72.528z
			 M448.355,71.3c-9.226,0-17.091,3.319-23.595,9.958c-6.548,6.597-9.821,14.572-9.821,23.928s3.273,17.33,9.821,23.927
			c6.504,6.596,14.369,9.894,23.595,9.894c9.183,0,17.048-3.298,23.595-9.894c6.505-6.597,9.757-14.571,9.757-23.927
			s-3.252-17.331-9.757-23.928C465.403,74.619,457.538,71.3,448.355,71.3z"/>
	</g>
	<g>
		<path fill="#107A7A" d="M129.876,96.788c-0.325,0.068-0.583,0.355-0.792,0.75c-0.002,0.026-0.002,0.053-0.004,0.079
			c-0.805,10.111-4.518,20.559-10.94,28.494c-1.796,2.218-3.991,4.298-6.235,6.053c-1.203,0.94-2.471,1.795-3.779,2.581
			c-4.791,2.873-10.269,5.059-15.775,6.039c-1.54,0.274-3.086,0.521-4.637,0.723c-2.531,0.33-5.086,0.588-7.641,0.605
			c-2.531,0.017-5.086-0.132-7.579-0.582c-1.414-0.256-2.835-0.589-4.212-1.003c-2.342-0.704-4.682-1.473-6.966-2.347
			c-0.287-0.109-0.573-0.222-0.858-0.338c-0.164-0.067-0.59-0.348-0.761-0.324c0.007-0.001,0.023,0.002,0.031,0.001
			c-15.544-6.315-26.537-21.573-26.537-39.358c0-23.418,19.05-42.471,42.469-42.471c0.067,0,0.134,0.005,0.202,0.005
			c-3.006-3.708-5.367-7.781-6.434-12.787c-27.74,3.108-49.379,26.696-49.379,55.253c0,30.664,24.946,55.611,55.61,55.611
			c30.621,0,55.538-24.877,55.608-55.48C131.098,97.225,130.678,96.62,129.876,96.788z"/>
		<g>
			<g>
				<path fill="#90D3D0" d="M33.139,98.245c-0.02-8.837,2.68-17.055,7.303-23.869l-11.098-7.038
					c-5.921,8.858-9.37,19.502-9.346,30.935c0.023,11.352,3.471,21.908,9.351,30.704l10.962-7.235
					C35.801,115.014,33.156,106.935,33.139,98.245z"/>
			</g>
			<path fill="#D9661C" d="M68.061,87.042"/>
			<path fill="#FC9F3E" d="M128.256,90.367c-0.17-6.023-1.354-12.114-3.491-17.835c-1.807-4.842-4.297-9.418-7.434-13.465
				c-2.094-2.7-4.519-5.048-7.142-7.164c-3.38-2.73-7.086-5.076-10.829-7.304c-4.436-2.64-8.706-5.077-12.382-8.425
				c-1.406-1.281-2.727-2.695-3.936-4.305c-3.007-4.002-5.675-8.545-6.711-13.496c-0.291-1.393-0.309-2.839-0.673-4.219
				c-0.366-1.389-1.799,3.959-2.282,5.32c-0.658,1.85-1.186,3.742-1.602,5.66c-1.071,4.933-2.123,11.184-0.896,16.18
				c0.413,1.686,1.34,3.477,2.15,5.006c0.729,1.373,1.622,2.635,2.646,3.803c2.135,2.434,4.508,4.731,6.912,6.897
				c2.36,2.126,4.934,3.974,7.507,5.828c2.019,1.454,4.034,2.912,6.128,4.258c0.646,0.415,1.304,0.816,1.941,1.246
				c0.183,0.123,0.712,0.379,0.795,0.607c0.012,0.029,0.066,0.067,0.088,0.091c-0.065,0.012-0.127-0.008-0.193-0.029
				c-4.898-1.582-10.311-3.943-19.51-10.295c2.055,2.291,4.326,4.476,6.641,6.703c1.66,1.596,3.343,3.213,4.988,4.904
				c2.996,3.084,5.868,6.327,8.394,9.807c2.527,3.479,4.707,7.192,6.325,11.219c1.064,2.651,1.8,5.496,2.161,8.377
				c0.233,1.871,0.308,3.758,0.214,5.617c-0.17,3.328-0.655,6.65-1.549,9.848c-0.931,3.334-2.305,6.529-4.225,9.453
				c-2.444,3.721-5.566,6.961-9.195,9.541c-5.143,3.655-11.314,5.957-18.012,6.448c-0.128,0.08-0.191,0.173-0.045,0.256
				c1.205,0.064,3.26,0.257,6.502,0.304c12.702,0.183,27.349-6.365,35.625-16.588c2.132-2.635,3.965-5.545,5.494-8.629
				c3.074-6.205,4.908-13.109,5.448-19.864C128.264,94.207,128.311,92.285,128.256,90.367z"/>
			<path fill="#DB661C" d="M99.801,103.78c-2.418-17.5-21.396-26.421-24.141-44.075c-1.375,1.462-4.307,5.022-4.783,5.729
				c-3.74,5.561-5.199,12.803-3.414,19.314c1.898,6.92,8.529,11.181,10.289,18.122c2.27,8.953-12.848,14.337-18.42,8.358
				c-5.14-5.513-2.77-16.641,0.217-22.609c0.49-0.978,0.91-1.999,1.658-2.816c0.007-0.01,0.012-0.017,0.018-0.026
				c0.104-0.162,0.076-0.22-0.003-0.229c-6.599,3.22-12.103,11.355-12.438,20.688c-0.512,14.186,10.575,26.104,24.762,26.612
				c11.826,0.428,24.391-8.375,26.145-20.483C100.137,109.281,100.17,106.455,99.801,103.78z"/>
		</g>
	</g>
</g>
<g id="Layer_2" display="none">
	
		<rect x="20.049" y="42.551" display="inline" fill="none" stroke="#B6FFDA" stroke-width="0.25" stroke-miterlimit="10" width="111.223" height="111.222"/>
	
		<line display="inline" fill="none" stroke="#B6FFDA" stroke-width="0.25" stroke-miterlimit="10" x1="14.336" y1="160.329" x2="142.004" y2="28.996"/>
	
		<line display="inline" fill="none" stroke="#B6FFDA" stroke-width="0.25" stroke-miterlimit="10" x1="-24.879" y1="121.114" x2="102.789" y2="-10.219"/>
	
		<line display="inline" fill="none" stroke="#B6FFDA" stroke-width="0.25" stroke-miterlimit="10" x1="-12.609" y1="133.384" x2="115.059" y2="2.051"/>
	
		<line display="inline" fill="none" stroke="#B6FFDA" stroke-width="0.25" stroke-miterlimit="10" x1="20.049" y1="42.551" x2="131.271" y2="153.772"/>
	
		<line display="inline" fill="none" stroke="#B6FFDA" stroke-width="0.25" stroke-miterlimit="10" x1="60.301" y1="2.298" x2="171.523" y2="113.52"/>
	
		<line display="inline" fill="none" stroke="#B6FFDA" stroke-width="0.25" stroke-miterlimit="10" x1="47.887" y1="14.798" x2="159.107" y2="126.02"/>
	
		<line display="inline" fill="none" stroke="#B6FFDA" stroke-width="0.25" stroke-miterlimit="10" x1="145.17" y1="98.161" x2="11.17" y2="98.161"/>
	
		<line display="inline" fill="none" stroke="#B6FFDA" stroke-width="0.25" stroke-miterlimit="10" x1="75.66" y1="11.662" x2="75.66" y2="199.662"/>
	
		<line display="inline" fill="none" stroke="#B6FFDA" stroke-width="0.25" stroke-miterlimit="10" x1="36.336" y1="30.328" x2="36.336" y2="165.994"/>
	
		<line display="inline" fill="none" stroke="#B6FFDA" stroke-width="0.25" stroke-miterlimit="10" x1="114.336" y1="30.328" x2="114.336" y2="165.994"/>
</g>
</svg>
